<svg id="svg" version="1.1" xmlns="http://www.w3.org/2000/svg" xmlns:xlink="http://www.w3.org/1999/xlink" width="50" height="50" viewBox="0, 0, 400, 400"><g id="svgg"><path id="path0" d="M40.200 0.444 C 20.211 3.326,3.222 20.452,0.434 40.529 C -0.321 45.970,-0.164 356.153,0.596 360.513 C 4.055 380.349,19.717 395.990,39.547 399.412 C 45.131 400.376,359.116 400.088,362.600 399.116 C 381.017 393.979,392.801 383.004,397.939 366.200 C 400.136 359.016,400.043 366.877,399.918 198.000 L 399.800 40.200 398.740 36.366 C 393.346 16.860,378.167 2.968,359.471 0.425 C 355.610 -0.100,43.844 -0.082,40.200 0.444 M356.266 8.428 C 373.945 10.399,387.508 22.938,391.283 40.800 C 391.910 43.769,392.235 348.340,391.618 355.200 C 389.861 374.735,375.588 389.399,356.200 391.587 C 351.054 392.168,48.947 392.154,43.734 391.572 C 24.750 389.456,10.544 375.250,8.428 356.266 C 7.827 350.883,7.827 49.117,8.428 43.734 C 10.513 25.034,24.781 10.554,43.200 8.447 C 47.790 7.922,351.562 7.903,356.266 8.428 M185.000 45.849 C 174.583 46.527,164.327 48.539,162.913 50.183 C 161.056 52.343,161.381 53.006,169.005 62.600 C 176.066 71.485,176.509 72.234,175.371 73.371 C 174.237 74.506,173.416 74.067,164.683 67.652 C 155.744 61.086,155.186 60.761,153.431 61.096 C 150.555 61.646,150.194 64.204,152.337 68.860 C 163.172 92.401,207.526 127.066,244.600 140.968 C 280.375 154.384,301.284 176.187,303.050 201.920 L 303.289 205.400 290.965 225.400 C 277.756 246.834,277.563 247.231,279.564 248.852 C 281.041 250.048,281.302 249.961,299.469 242.200 C 308.997 238.130,317.020 234.800,317.296 234.799 C 317.573 234.799,325.570 238.129,335.067 242.199 C 353.519 250.108,353.526 250.110,355.018 248.618 C 356.725 246.911,356.525 246.506,343.708 225.728 C 335.399 212.259,331.434 205.476,331.473 204.800 C 333.645 167.431,327.245 135.864,312.877 113.086 C 311.289 110.567,310.585 109.114,310.904 109.011 C 311.465 108.829,325.241 106.395,325.692 106.398 C 325.964 106.400,303.732 75.635,302.623 74.474 C 302.209 74.042,300.045 74.299,290.364 75.932 L 278.607 77.914 277.203 76.813 C 251.524 56.668,213.737 43.978,185.000 45.849 M198.716 57.557 C 205.768 61.157,203.154 71.600,195.200 71.600 C 189.290 71.600,185.846 65.726,188.615 60.370 C 190.221 57.265,195.347 55.838,198.716 57.557 M36.000 114.963 L 36.000 129.559 63.300 129.704 C 92.506 129.859,91.463 129.788,95.452 131.895 C 97.576 133.017,100.604 136.048,101.651 138.100 C 103.642 142.003,103.692 142.475,104.000 160.200 C 104.313 178.208,104.469 179.697,106.648 185.492 C 112.379 200.735,124.519 211.182,141.005 215.059 C 143.369 215.615,147.565 215.754,168.200 215.958 L 192.600 216.200 195.200 217.444 C 198.297 218.926,201.238 221.439,202.606 223.773 C 204.836 227.580,204.896 228.099,205.197 246.400 C 205.501 264.878,205.594 265.687,208.185 272.535 C 212.626 284.274,222.953 294.634,234.569 299.003 C 241.902 301.762,241.343 301.712,268.600 302.002 C 294.946 302.282,294.380 302.239,298.200 304.274 C 300.254 305.369,303.431 308.546,304.526 310.600 C 306.587 314.468,306.537 313.795,306.696 339.700 L 306.845 364.000 321.441 364.000 L 336.037 364.000 335.901 337.300 L 335.765 310.600 334.714 307.000 C 330.278 291.811,320.272 280.805,306.000 275.418 C 299.177 272.842,294.087 272.435,268.400 272.409 C 245.310 272.386,243.819 272.110,239.339 267.011 C 235.308 262.423,234.830 259.967,234.812 243.742 C 234.784 218.301,230.310 206.316,217.089 196.273 C 205.390 187.386,200.837 186.402,171.400 186.398 C 144.640 186.395,143.000 186.146,138.245 181.365 C 133.743 176.838,133.232 174.202,133.212 155.400 C 133.196 140.639,132.881 137.352,130.926 131.600 C 125.979 117.041,114.402 106.155,99.145 101.720 L 95.400 100.631 65.700 100.499 L 36.000 100.366 36.000 114.963 " stroke="none" fill="#251d25" fill-rule="evenodd"></path><path id="path1" d="M43.200 8.447 C 24.781 10.554,10.513 25.034,8.428 43.734 C 7.827 49.117,7.827 350.883,8.428 356.266 C 10.544 375.250,24.750 389.456,43.734 391.572 C 48.947 392.154,351.054 392.168,356.200 391.587 C 375.588 389.399,389.861 374.735,391.618 355.200 C 392.235 348.340,391.910 43.769,391.283 40.800 C 387.508 22.938,373.945 10.399,356.266 8.428 C 351.562 7.903,47.790 7.922,43.200 8.447 M205.200 46.597 C 229.140 49.548,257.755 61.556,277.203 76.813 L 278.607 77.914 290.364 75.932 C 300.045 74.299,302.209 74.042,302.623 74.474 C 303.732 75.635,325.964 106.400,325.692 106.398 C 325.241 106.395,311.465 108.829,310.904 109.011 C 310.585 109.114,311.289 110.567,312.877 113.086 C 327.245 135.864,333.645 167.431,331.473 204.800 C 331.434 205.476,335.399 212.259,343.708 225.728 C 356.525 246.506,356.725 246.911,355.018 248.618 C 353.526 250.110,353.519 250.108,335.067 242.199 C 325.570 238.129,317.573 234.799,317.296 234.799 C 317.020 234.800,308.997 238.130,299.469 242.200 C 281.302 249.961,281.041 250.048,279.564 248.852 C 277.563 247.231,277.756 246.834,290.965 225.400 L 303.289 205.400 303.050 201.920 C 301.284 176.187,280.375 154.384,244.600 140.968 C 207.526 127.066,163.172 92.401,152.337 68.860 C 150.194 64.204,150.555 61.646,153.431 61.096 C 155.186 60.761,155.744 61.086,164.683 67.652 C 173.416 74.067,174.237 74.506,175.371 73.371 C 176.509 72.234,176.066 71.485,169.005 62.600 C 159.813 51.033,159.745 50.045,168.013 48.175 C 178.903 45.713,193.131 45.109,205.200 46.597 M191.100 57.977 C 189.015 59.300,188.099 60.764,187.746 63.343 C 186.583 71.826,198.874 75.023,202.185 67.098 C 205.036 60.274,197.394 53.986,191.100 57.977 M99.145 101.720 C 114.402 106.155,125.979 117.041,130.926 131.600 C 132.881 137.352,133.196 140.639,133.212 155.400 C 133.232 174.202,133.743 176.838,138.245 181.365 C 143.000 186.146,144.640 186.395,171.400 186.398 C 200.837 186.402,205.390 187.386,217.089 196.273 C 230.310 206.316,234.784 218.301,234.812 243.742 C 234.830 259.967,235.308 262.423,239.339 267.011 C 243.819 272.110,245.310 272.386,268.400 272.409 C 294.087 272.435,299.177 272.842,306.000 275.418 C 320.272 280.805,330.278 291.811,334.714 307.000 L 335.765 310.600 335.901 337.300 L 336.037 364.000 321.441 364.000 L 306.845 364.000 306.696 339.700 C 306.537 313.795,306.587 314.468,304.526 310.600 C 303.431 308.546,300.254 305.369,298.200 304.274 C 294.380 302.239,294.946 302.282,268.600 302.002 C 241.343 301.712,241.902 301.762,234.569 299.003 C 222.953 294.634,212.626 284.274,208.185 272.535 C 205.594 265.687,205.501 264.878,205.197 246.400 C 204.896 228.099,204.836 227.580,202.606 223.773 C 201.238 221.439,198.297 218.926,195.200 217.444 L 192.600 216.200 168.200 215.958 C 147.565 215.754,143.369 215.615,141.005 215.059 C 124.519 211.182,112.379 200.735,106.648 185.492 C 104.469 179.697,104.313 178.208,104.000 160.200 C 103.692 142.475,103.642 142.003,101.651 138.100 C 100.604 136.048,97.576 133.017,95.452 131.895 C 91.463 129.788,92.506 129.859,63.300 129.704 L 36.000 129.559 36.000 114.963 L 36.000 100.366 65.700 100.499 L 95.400 100.631 99.145 101.720 " stroke="none" fill="#fbfbfb" fill-rule="evenodd"></path></g></svg>